<?xml version="1.0" encoding="utf-8"?>
<!-- Generator: Adobe Illustrator 22.0.1, SVG Export Plug-In . SVG Version: 6.00 Build 0)  -->
<svg version="1.1" id="Layer_2" xmlns="http://www.w3.org/2000/svg" xmlns:xlink="http://www.w3.org/1999/xlink" x="0px" y="0px"
	 viewBox="0 0 277.5 287.7" style="enable-background:new 0 0 277.5 287.7;" xml:space="preserve">
<style type="text/css">
	.st0{fill:#1979F7;}
</style>
<path class="st0" d="M7.1,59.1c0-0.6,1.4-16.5,2.2-18.1c0.9-1.8,9.9-1.5,14.2,0c4,1.4,6.2,15,6.5,16.8c0,0.1,0.1,0.1,0.1,0
	c0.4-0.9,2.2-5.4,5.2-8.5c4.9-5,15.2-6.2,20.2,1c2.1,3,3,8.5,3.2,9.7c0,0.1,0.1,0.1,0.1,0c0.4-1.1,2.2-6.2,6.1-10.6
	c4-4.5,13.6-6.4,20.3,0.5c5.1,5.3,6.1,9.7,5.2,32.9c-0.2,3.9-0.4,12.8-1,15.5c-0.7,3.1-14.6,2.6-15.9,2.2
	c-4.1-1.1-0.2-12.7-3.1-20.7c-2.1-5.6-13.7-9.2-19.5,1.9c-1.6,3-2.2,8.4-2.3,9.8c0,0.1-0.1,0.1-0.1,0c-0.4-2.2-3.1-13.9-11.9-15.1
	c-6.2-0.8-9,4.8-9.8,9.3C25.7,91.7,27.4,96.6,26,98c-1.6,1.8-20.7,3.1-21.7,1.9C3.3,98.6,7.1,59.7,7.1,59.1z"/>
<path class="st0" d="M95.9,50.7c2.2-2.1,11.2-1.9,16.2-0.7c0.9,0.2,1.2,5.9,2.1,10.6c1.3,7.1,2.3,15.8,8.3,15.3
	c7.7-0.6,8-9.1,8-16.1c0-5.7-0.8-10.7-0.1-10.8c4.3-0.9,13.8,0.3,16.3,3.2c2.2,2.6,1.3,12.3,0.8,22.4c-0.6,12.7-6,28.6-22.3,28.6
	c-22.7,0-23-18.8-26.3-33C96.2,58,95.2,51.4,95.9,50.7z"/>
<path class="st0" d="M151.2,5.1c0.4-3.4,20.6-3,22.6,0c4,6,2.7,39.3,3.1,46c0.5,7.5,0.1,48.9-4.7,49.7c-5.1,0.9-12.3-0.2-15.4-0.2
	c-4,0-3.4-72-4.1-79C152.3,18,150.7,9.2,151.2,5.1z"/>
<path class="st0" d="M201.6,6c3-2.3,15.2-2,18.7,0c3.1,1.7,1,30.7,1.9,33.3c1,2.6,13.5-1.1,14.8,2.6s0.8,18.8-1,20.3
	c-1.8,1.5-7.2-3-11.1-1.9s0.2,34.6-4.5,38.5c-4.7,3.9-17,3.2-18.2,0.7c-4.3-9.4,2-33.8-2.1-36.2c-2.4-1.4-12.1,3.7-14.4,1.9
	c-2.3-1.7-5.3-22.1-3.7-23.8c1.6-1.7,20.1,3.5,21.6-1.7S200,7.2,201.6,6z"/>
<path class="st0" d="M252.3,42.5c2.3-1.6,14.4-2.5,17.5,2.9c4.4,7.6,3.8,50.2,2.4,52.7s-16.6,5.2-19.9,3.2c-1.7-1-0.9-18.4-0.9-32.6
	C251.4,54.5,250.8,43.6,252.3,42.5z"/>
<path class="st0" d="M253,12c0,0,0.3-10.8,13.3-6.6c6.1,2,6.7,11.1,2,14C261.1,23.7,253,19.5,253,12z"/>
<g>
	<path class="st0" d="M204.3,112c2.6-4.5,11.8-5.4,13.4,2.3c1.8,8.7-7,11.6-11.3,8.8C203.7,121.3,201.9,116.1,204.3,112z"/>
	<g>
		<path class="st0" d="M7.7,139.9c2.3-0.8,14.5-1.9,19.5,0C30,141,31,152.2,31,153c0,0,0,0,0,0c0.3-0.4,2.8-4.6,6.4-7.6
			c4.1-3.4,11.6-5.9,16.1-2.8c4.2,2.9,5.1,11.6,5.1,11.6c0,0,1-5.3,4.1-8.9c4.4-5.3,17-5.5,19.9,5c1.4,4.9,0.6,15.7,0.6,20.1
			c0.1,8.8-0.3,17.1-1.8,17.9c-3.8,2.1-14.8,4.1-16.8,3.2c-2-0.8,1.8-19.1-10.7-23.3c-7-2.3-11.2,6.5-11.5,7.2c0,0,0,0,0,0
			c-0.3-0.7-3.3-7.3-7.8-8.5c-3.4-0.9-8.8-0.3-10.8,7.7c-0.8,3.1,0.1,10.2-0.6,11.1c-1.5,2-19,4.8-19.5,2.2
			c-0.4-2.2,1.9-14.3,1.9-27.2C5.4,150.4,5.7,140.6,7.7,139.9z"/>
		<path class="st0" d="M109.7,163.7c0.5-0.7,25.5-0.5,26.1-1.5c0.5-0.9,5.9-20.3-13-24.5c-19-4.2-28.3,13.8-29.9,19.3
			c-1.7,5.5-7.2,24.7,12.6,33.1c10.4,4.4,18.8,0.6,22.8-3.2c5.4-5.2,8.7-11.2,8.7-12.3c0-0.9-8.4-5.4-10.4-4.6
			c-2,0.8-4.6,11.9-11.6,9.5C107.8,177.1,106.3,168.2,109.7,163.7z"/>
		<path class="st0" d="M173.1,152.4C173.1,152.4,173.1,152.4,173.1,152.4c0.2-1.4,1.4-18.3,1.3-22.4c-0.1-4.1-0.2-20.5,2.4-22.5
			s12.6-0.2,13.4,1.4c0.9,1.9,3.6,26.6,3.4,38.1c-0.2,11.6,2.1,42.2,0,43.2c-1.8,0.8-15.8,0-17-0.8c-1.2-0.8,0-14.4,0-14.4
			s-3.4,19.3-20.3,17.2s-16.8-23.1-15-29.8c1.3-4.9,6.3-15,16.1-16.7C167.3,144,172.5,151.5,173.1,152.4z"/>
		<path class="st0" d="M201.5,141.7c1.6-1.6,12.6-2.7,17.2,0c1.9,1.1,0.6,10,0.4,19.3c-0.2,11.7,1,24.8-1.4,27
			c-4.3,3.9-14.8,3.2-16.2,2.3c-0.7-0.5,0.5-12.7,0.4-24.8C201.8,154,200.4,142.8,201.5,141.7z"/>
		<path class="st0" d="M257.2,148.6c0,0,0.1-7.4,1.9-8.2c1.8-0.8,12.5-0.1,14,2.4c1.5,2.6,1.4,45.7-2.3,47.6
			c-3.7,1.9-14.3,1.3-15,0.4c-0.7-0.8-0.7-7.8-0.7-9.6c0-0.2,0-0.2-0.1,0c-0.7,2-4.8,11.9-14.7,10.6c-10.5-1.4-16-14.3-14.9-24.3
			c1.1-10.8,4.9-17.9,11.7-22.8c5.3-3.8,9.4-4,12.9-3.2C256.6,142.6,257.2,148.6,257.2,148.6z"/>
	</g>
</g>
<g>
	<path class="st0" d="M8.6,231.8c3-1.9,12.8-0.7,14.9,1.8c2.2,2.8,3.1,15.7,3.2,16.3c0,0,0,0,0,0c0.2-0.4,3.1-6.5,6.2-9.5
		c4.9-4.7,12.8-6.7,17.8,0c3,4.1,3.9,8.9,3.9,9c0,0,0,0,0,0c0,0,2-4.6,6.2-7.6c4.4-3.1,13.3-4.9,17.2,4.5c2.3,5.5,2.2,12.1,2.2,18.9
		c0,8.9-0.4,16.9-1.1,17.6c-0.7,0.7-14.2,2.9-15.1,1.8c-0.9-1.1-1.5-12.2-2.7-16.7c-1.8-7.1-11-10.2-15.7-2.5
		c-2,3.2-3.2,8.1-3.4,8.7c0,0,0,0,0,0c-0.1-0.7-0.8-5.8-4.5-9.7c-3.7-4-11.6-4.7-15.4,2.5c-3.5,6.6,0.6,15.2-0.7,17.1
		c-1.3,1.9-17,1.8-17.3,0S6.5,233.2,8.6,231.8z"/>
	<path class="st0" d="M119.4,247.9C119.4,248,119.4,248,119.4,247.9c0.1-0.7,0.5-7.2,1.5-8.2c1-1,13.1-1.5,13.6,0
		c0.6,1.5-0.7,17-0.9,20.4c-0.5,7.9,0.3,22.5-3,23.9c-3.3,1.4-13.4,1.9-14.1,0.5c-0.7-1.3-1.4-9-1.5-9.8c0,0,0,0,0,0
		c-0.2,0.9-2.3,10.9-12,11.9c-12,1.3-16.7-6.9-17.6-16.6c-1.4-14,6.6-24.8,9.3-27s9.5-7.9,19-2.6
		C118.6,243.1,119.2,247.4,119.4,247.9z"/>
	<path class="st0" d="M142,198.8c1-1.3,11.6-2.3,14.2,2.1c2.6,4.4,2.3,38.5,2.8,39.6c0.5,1.1,16-22.4,19.6-27.2
		c1.4-1.8,13,6.8,12.4,10.3c-1.1,7.4-17.3,17.7-17.2,22.3c0.2,4.4,13.6,26.3,14.1,36.3c0.1,1.9-12.3,6.7-13.9,5.8
		s-10.8-21-12.1-21.6c-1.3-0.5-6.5,0.4-7.7,1.9s0.5,13.8-0.7,14.7c-1.1,0.9-12.9,1.4-13.7,0.7c-0.8-0.7,2.2-37,2.1-45.4
		C141.9,230.1,140.5,200.7,142,198.8z"/>
	<path class="st0" d="M206.4,255.2c1.2-1.8,22.1-1.5,22.9-2.6s2.5-11.6-8.4-17.2c-10.3-5.3-22.6-3.3-29.2,9.9
		c-5,10-2.1,23.8,2.1,31.2c6.7,11.7,23.8,11.7,31.2,3.3c5.7-6.4,7.7-11.6,6.6-13c-2.2-2.8-8.3-5.1-10.7-4.3
		c-2.4,0.8-3.9,9.4-9.4,8.8C205.6,270.7,204.4,258.2,206.4,255.2z"/>
	<path class="st0" d="M233.5,238.6c0.6-1.2,9.6-4.9,13.7-1.9c1.6,1.2,2.2,11.5,2.3,12.5c0,0,0,0,0,0c0.2-0.8,1.9-7.2,9-11.3
		c5.9-3.4,14.6,0.9,14.6,4.5c0,2.2-2.9,13.9-3.2,16c-0.3,1.7-9.4-0.7-12.5,1.7c-5.2,4.1-1.5,19.2-2.6,21.4
		c-1.3,2.4-16.5,6.5-18.6,4.4c-1.3-1.3-0.7-15.7-0.7-21.9C235.5,254.6,232.6,240.6,233.5,238.6z"/>
</g>
</svg>
