<?xml version="1.0" encoding="utf-8"?>
<!-- Generator: Adobe Illustrator 22.0.1, SVG Export Plug-In . SVG Version: 6.00 Build 0)  -->
<svg version="1.1" id="Layer_2" xmlns="http://www.w3.org/2000/svg" xmlns:xlink="http://www.w3.org/1999/xlink" x="0px" y="0px"
	 viewBox="0 0 1000 117.5" style="enable-background:new 0 0 1000 117.5;" xml:space="preserve">
<style type="text/css">
	.st0{fill:#1979F7;}
</style>
<g>
	<g>
		<path class="st0" d="M8.9,64.5c0-0.6,1.4-16.5,2.2-18.1c0.9-1.8,9.9-1.5,14.2,0c4,1.4,6.2,15,6.5,16.8c0,0.1,0.1,0.1,0.1,0
			c0.4-0.9,2.2-5.4,5.2-8.5c4.9-5,15.2-6.2,20.2,1c2.1,3,3,8.5,3.2,9.7c0,0.1,0.1,0.1,0.1,0c0.4-1.1,2.2-6.2,6.1-10.6
			c4-4.5,13.6-6.4,20.3,0.5c5.1,5.3,6.1,9.7,5.2,32.9c-0.2,3.9-0.4,12.8-1,15.5c-0.7,3.1-14.6,2.6-15.9,2.2
			c-4.1-1.1-0.2-12.7-3.1-20.7c-2.1-5.6-13.7-9.2-19.5,1.9c-1.6,3-2.2,8.4-2.3,9.8c0,0.1-0.1,0.1-0.1,0c-0.4-2.2-3.1-13.9-11.9-15.1
			c-6.2-0.8-9,4.8-9.8,9.3c-1.1,6.1,0.6,10.9-0.7,12.4c-1.6,1.8-20.7,3.1-21.7,1.9C5.1,104,8.9,65.1,8.9,64.5z"/>
		<path class="st0" d="M97.7,56.1C100,54,109,54.2,114,55.4c0.9,0.2,1.2,5.9,2.1,10.6c1.3,7.1,2.3,15.8,8.3,15.3
			c7.7-0.6,8-9.1,8-16.1c0-5.7-0.8-10.7-0.1-10.8c4.3-0.9,13.8,0.3,16.3,3.2c2.2,2.6,1.3,12.3,0.8,22.4c-0.6,12.7-6,28.6-22.3,28.6
			c-22.7,0-23-18.8-26.3-33C98,63.5,97,56.8,97.7,56.1z"/>
		<path class="st0" d="M153,10.5c0.4-3.4,20.6-3,22.6,0c4,6,2.7,39.3,3.1,46c0.5,7.5,0.1,48.9-4.7,49.7c-5.1,0.9-12.3-0.2-15.4-0.2
			c-4,0-3.4-72-4.1-79C154.1,23.4,152.5,14.6,153,10.5z"/>
		<path class="st0" d="M203.4,11.4c3-2.3,15.2-2,18.7,0c3.1,1.7,1,30.7,1.9,33.3s13.5-1.1,14.8,2.6c1.4,3.7,0.8,18.8-1,20.3
			c-1.8,1.5-7.2-3-11.1-1.9c-3.9,1.1,0.2,34.6-4.5,38.5c-4.7,3.9-17,3.2-18.2,0.7c-4.3-9.4,2-33.8-2.1-36.2
			c-2.4-1.4-12.1,3.7-14.4,1.9c-2.3-1.7-5.3-22.1-3.7-23.8c1.6-1.7,20.1,3.5,21.6-1.7C207.1,39.9,201.8,12.6,203.4,11.4z"/>
		<path class="st0" d="M254.1,47.9c2.3-1.6,14.4-2.5,17.5,2.9c4.4,7.6,3.8,50.2,2.4,52.7s-16.6,5.2-19.9,3.2
			c-1.7-1-0.9-18.4-0.9-32.6S252.6,49,254.1,47.9z"/>
		<path class="st0" d="M254.8,17.4c0,0,0.3-10.8,13.3-6.6c6.1,2,6.7,11.1,2,14C262.9,29.1,254.8,24.9,254.8,17.4z"/>
		<path class="st0" d="M287.7,51.9c2.5-0.9,15.9-2.1,21.2,0c3.1,1.2,4.1,13.5,4.2,14.3c0,0,0,0,0,0c0.3-0.5,3-5,6.9-8.3
			c4.5-3.7,12.7-6.4,17.5-3c4.6,3.2,5.6,12.6,5.6,12.6c0,0,1.1-5.8,4.4-9.8c4.8-5.8,18.5-6,21.7,5.5c1.5,5.4,0.6,17.2,0.7,21.9
			c0.1,9.6-0.3,18.7-2,19.6c-4.1,2.3-16.2,4.4-18.4,3.5s2-20.9-11.7-25.4c-7.6-2.5-12.2,7.1-12.6,7.9c0,0,0,0-0.1,0
			c-0.3-0.7-3.6-8-8.5-9.2c-3.7-1-9.6-0.3-11.8,8.4c-0.8,3.4,0.1,11.2-0.7,12.2c-1.7,2.2-20.7,5.2-21.2,2.4
			c-0.5-2.4,2.1-15.6,2.1-29.6C285.2,63.4,285.6,52.7,287.7,51.9z"/>
		<path class="st0" d="M399.1,77.9c0.6-0.7,27.9-0.6,28.5-1.6c0.6-1,6.5-22.1-14.2-26.7c-20.7-4.6-30.9,15.1-32.7,21.1
			c-1.8,6-7.8,27,13.8,36.1c11.3,4.8,20.5,0.7,24.9-3.5c5.9-5.7,9.5-12.2,9.5-13.4c0-0.9-9.2-5.9-11.4-5s-5,13-12.7,10.3
			C397,92.5,395.4,82.8,399.1,77.9z"/>
		<path class="st0" d="M468.2,65.5C468.2,65.6,468.3,65.6,468.2,65.5c0.2-1.5,1.5-20,1.4-24.5c-0.1-4.5-0.2-22.3,2.7-24.6
			s13.7-0.2,14.6,1.5c1,2.1,4,29,3.8,41.6s2.3,46.1,0,47.1c-1.9,0.9-17.3,0-18.6-0.9s0-15.7,0-15.7s-3.8,21.1-22.1,18.8
			c-18.4-2.2-18.4-25.2-16.4-32.5c1.5-5.4,6.9-16.4,17.6-18.2C461.9,56.4,467.6,64.6,468.2,65.5z"/>
		<path class="st0" d="M499.2,53.9c1.7-1.8,13.7-2.9,18.8,0c2.1,1.2,0.6,11,0.4,21c-0.2,12.8,1.1,27.1-1.5,29.5
			c-4.6,4.3-16.2,3.5-17.7,2.5c-0.8-0.5,0.5-13.9,0.4-27.1C499.6,67.4,498.1,55.1,499.2,53.9z"/>
		<path class="st0" d="M502.3,21.4c2.8-4.9,12.8-5.9,14.6,2.5c2,9.5-7.6,12.7-12.3,9.6C501.7,31.6,499.7,26,502.3,21.4z"/>
		<path class="st0" d="M560.1,61.4c0,0,0.1-8.1,2.1-9s13.6-0.1,15.3,2.7c1.7,2.8,1.5,49.9-2.5,51.9c-4,2.1-15.6,1.4-16.4,0.4
			c-0.7-0.9-0.7-8.6-0.7-10.4c0-0.2,0-0.2-0.1,0c-0.8,2.2-5.2,13-16,11.6c-11.4-1.5-17.4-15.6-16.3-26.6
			c1.2-11.8,5.4-19.6,12.8-24.9c5.8-4.2,10.3-4.3,14.1-3.5C559.4,54.9,560.1,61.4,560.1,61.4z"/>
	</g>
	<g>
		<path class="st0" d="M682,43.5c3.5-2.2,15.1-0.9,17.6,2.1c2.6,3.3,3.7,18.6,3.8,19.2c0,0,0,0,0,0c0.2-0.4,3.7-7.7,7.3-11.2
			c5.8-5.6,15.1-7.9,21,0c3.6,4.8,4.6,10.6,4.6,10.6c0,0,0,0,0,0c0,0,2.4-5.5,7.3-8.9c5.2-3.7,15.7-5.8,20.4,5.3
			c2.7,6.5,2.6,14.3,2.6,22.3c0,10.5-0.5,20-1.3,20.8c-0.9,0.9-16.7,3.5-17.8,2.1s-1.8-14.4-3.2-19.8c-2.2-8.3-13-12-18.6-3
			c-2.3,3.8-3.8,9.6-4,10.3c0,0,0,0,0,0c-0.1-0.8-1-6.8-5.3-11.4c-4.4-4.7-13.6-5.6-18.1,3c-4.1,7.8,0.8,17.9-0.8,20.1
			s-20,2.1-20.5,0S679.5,45.1,682,43.5z"/>
		<path class="st0" d="M812.9,62.5C812.9,62.6,812.9,62.5,812.9,62.5c0.1-0.8,0.6-8.6,1.8-9.7c1.2-1.2,15.4-1.8,16.1,0
			c0.7,1.8-0.8,20-1.1,24c-0.5,9.3,0.4,26.6-3.5,28.2c-3.9,1.6-15.8,2.2-16.6,0.6c-0.8-1.5-1.7-10.6-1.7-11.6c0,0,0,0,0,0
			c-0.2,1.1-2.7,12.8-14.2,14.1c-14.1,1.5-19.7-8.2-20.8-19.6c-1.6-16.5,7.8-29.3,10.9-31.9s11.2-9.3,22.5-3
			C811.9,56.8,812.6,61.8,812.9,62.5z"/>
		<path class="st0" d="M839.4,4.5c1.1-1.5,13.7-2.7,16.8,2.5s2.7,45.5,3.3,46.8c0.6,1.2,18.8-26.5,23.2-32.1
			c1.6-2.1,15.3,8,14.7,12.2c-1.4,8.7-20.5,20.9-20.3,26.3c0.2,5.2,16,31,16.6,42.8c0.1,2.2-14.5,7.9-16.4,6.8
			c-1.9-1-12.7-24.8-14.3-25.4c-1.5-0.6-7.7,0.4-9.1,2.3s0.6,16.3-0.8,17.4c-1.4,1-15.3,1.7-16.2,0.8c-1-0.8,2.6-43.7,2.5-53.6
			C839.4,41.5,837.7,6.8,839.4,4.5z"/>
		<path class="st0" d="M915.5,71.1c1.4-2.2,26.1-1.8,27-3.1s3-13.6-10-20.4c-12.1-6.3-26.6-3.9-34.5,11.7
			c-5.9,11.8-2.4,28.1,2.5,36.8c7.9,13.8,28.1,13.8,36.9,3.9c6.7-7.5,9.1-13.7,7.8-15.3c-2.6-3.3-9.8-6-12.7-5.1
			c-2.9,0.9-4.6,11.1-11.1,10.4C914.6,89.4,913.1,74.7,915.5,71.1z"/>
		<path class="st0" d="M947.6,51.5c0.7-1.4,11.4-5.8,16.2-2.2c1.9,1.4,2.6,13.5,2.7,14.8c0,0,0,0,0,0c0.2-1,2.3-8.5,10.6-13.3
			c7-4,17.3,1,17.3,5.3c0,2.5-3.4,16.5-3.8,18.9c-0.3,2.1-11.1-0.8-14.7,2.1c-6.1,4.9-1.7,22.7-3.1,25.2c-1.5,2.8-19.5,7.7-22,5.2
			c-1.6-1.5-0.8-18.5-0.8-25.9C949.9,70.4,946.4,53.9,947.6,51.5z"/>
	</g>
</g>
</svg>
